HIERARCHY
ROOT Hips
{
  OFFSET 179.413 98.2961 100.729
  CHANNELS 6 Xposition Yposition Zposition Zrotation Xrotation Yrotation
  JOINT ToSpine
  {
    OFFSET -2.69724 7.43032 -0.144315
    CHANNELS 3 Zrotation Xrotation Yrotation
    JOINT Spine
    {
      OFFSET -0.0310711 10.7595 1.96963
      CHANNELS 3 Zrotation Xrotation Yrotation
      JOINT Spine1
      {
        OFFSET 13.1342 3.43533 0.764692
        CHANNELS 3 Zrotation Xrotation Yrotation
        JOINT Neck
        {
          OFFSET 29.8703 7.82586 -0.130764
          CHANNELS 3 Zrotation Xrotation Yrotation
          JOINT Head
          {
            OFFSET 9.52751 0.295786 -0.907742
            CHANNELS 3 Zrotation Xrotation Yrotation
            End Site
            {
              OFFSET 16.4037 0.713936 2.7358
            }
          }
        }
        JOINT LeftShoulder
        {
          OFFSET 27.5574 4.95586 2.47156
          CHANNELS 3 Zrotation Xrotation Yrotation
          JOINT LeftArm
          {
            OFFSET 1.20734 -0.998971 20.1238
            CHANNELS 3 Zrotation Xrotation Yrotation
            JOINT LeftForeArm
            {
              OFFSET 26.8049 -0.0536703 -0.155908
              CHANNELS 3 Zrotation Xrotation Yrotation
              JOINT LeftHand
              {
                OFFSET 26.6817 0 0.320147
                CHANNELS 3 Zrotation Xrotation Yrotation
                End Site
                {
                  OFFSET 18.6119 0 0.382219
                }
              }
            }
          }
        }
        JOINT RightShoulder
        {
          OFFSET 27.5927 4.71444 -2.65209
          CHANNELS 3 Zrotation Xrotation Yrotation
          JOINT RightArm
          {
            OFFSET 2.83739 -1.17114 -18.7564
            CHANNELS 3 Zrotation Xrotation Yrotation
            JOINT RightForeArm
            {
              OFFSET 28.839 -0.0548439 1.22491
              CHANNELS 3 Zrotation Xrotation Yrotation
              JOINT RightHand
              {
                OFFSET 26.5114 0 -0.101894
                CHANNELS 3 Zrotation Xrotation Yrotation
                End Site
                {
                  OFFSET 18.2168 0 0
                }
              }
            }
          }
        }
      }
    }
  }
  JOINT LeftUpLeg
  {
    OFFSET -4.76168 -1.9167 -10.2353
    CHANNELS 3 Zrotation Xrotation Yrotation
    JOINT LeftLeg
    {
      OFFSET 2.55951 -42.0585 -8.02213
      CHANNELS 3 Zrotation Xrotation Yrotation
      JOINT LeftFoot
      {
        OFFSET 3.16357 -42.5282 -3.95426
        CHANNELS 3 Zrotation Xrotation Yrotation
        JOINT LeftToeBase
        {
          OFFSET 0.346054 -6.02161 12.8035
          CHANNELS 3 Zrotation Xrotation Yrotation
          End Site
          {
            OFFSET 0.134235 -1.35082 5.13018
          }
        }
      }
    }
  }
  JOINT RightUpLeg
  {
    OFFSET -4.94151 -1.41743 10.6446
    CHANNELS 3 Zrotation Xrotation Yrotation
    JOINT RightLeg
    {
      OFFSET -2.56294 -42.0364 -7.94377
      CHANNELS 3 Zrotation Xrotation Yrotation
      JOINT RightFoot
      {
        OFFSET -3.0952 -42.555 -4.02241
        CHANNELS 3 Zrotation Xrotation Yrotation
        JOINT RightToeBase
        {
          OFFSET -0.0828122 -6.13587 12.8035
          CHANNELS 3 Zrotation Xrotation Yrotation
          End Site
          {
            OFFSET -0.131328 -1.35082 5.13018
          }
        }
      }
    }
  }
}
MOTION
Frames:	10
Frame Time:	0.0333333
283.515 99.6194 191.974 42.0929 -45.7247 -38.4064 -70.1915 0 88.8779 112.142 69.1318 -25.1528 -3.38619 21.4686 -0.363051 -160.679 16.4023 178.392 -152.915 55.8505 -170.567 0.599596 -12.5035 -29.6818 -83.1678 41.1566 -73.0333 13.2112 -1.65474 -96.2588 0.420957 0.000575438 0.35866 -2.31423 6.25891 51.0533 -64.0715 -33.5491 75.7988 6.29575 -5.71884 48.1898 0.58676 0.000331005 0.0646653 -40.7896 -6.14095 92.7358 -3.97208 51.6948 -5.50114 -0.313189 -13.438 -1.15633 8.69335 -18.2798 15.1703 -17.9453 11.4254 105.499 2.56519 35.2502 11.1475 -2.77874 4.06263 0.292211 2.36633 -17.4475 -26.3697 
278.385 99.8274 187.172 42.5373 -46.3905 -37.3048 -70.1915 0 88.8779 112.024 70.1609 -25.2306 -3.19328 21.6495 1.12843 -160.22 16.6683 -178.788 -159.372 56.606 -166.006 0.324963 -13.6891 -31.0958 -81.2624 41.8137 -71.7051 13.1132 -0.00860279 -89.3447 0.420957 0.000575438 0.35866 -2.29555 6.78579 48.0531 -66.7337 -34.8948 77.6723 7.56629 -6.02233 51.8842 0.58676 0.000331005 0.0646653 -36.8152 -3.88621 93.087 -3.40797 52.2008 -1.23627 -0.801061 -14.6913 -1.26285 6.99434 -15.2116 5.12677 -18.8903 9.43392 100.033 3.27662 49.4036 4.53579 -3.47427 -4.82958 0.825107 2.58817 -15.8695 -28.2942 
273.026 99.5494 182.555 45.5987 -46.3612 -34.8518 -70.1915 0 88.8779 115.24 69.8921 -30.8443 -4.95995 21.5371 2.99005 -159.722 16.8027 -179.568 -158.702 56.6214 -167.207 0.347621 -13.5568 -31.2446 -79.4181 43.6936 -70.6068 14.2534 1.9967 -81.563 0.420957 0.000575438 0.35866 -2.0366 6.22589 47.0765 -68.2628 -34.3912 79.9884 7.7819 -5.3451 55.8801 0.58676 0.000331005 0.0646653 -32.5591 -1.85708 94.3021 -4.35355 54.5895 -4.3047 0.425571 -12.7162 -1.108 4.97527 -11.9761 8.71996 -23.0196 5.48219 95.8425 4.0715 62.8611 -6.31175 -5.054 -9.27454 1.1157 2.37975 -13.8129 -16.8227 
268.151 97.866 177.997 48.2434 -46.6347 -31.9357 -70.1915 0 88.8779 115.911 69.8578 -31.5083 -4.5798 21.4621 3.17114 -160.349 16.1624 179.335 -158.289 55.8621 -169.026 0.479665 -12.9775 -30.7883 -79.1098 46.5475 -69.0571 13.3305 4.17559 -72.3693 0.420957 0.000575438 0.35866 -2.22765 6.71288 47.4526 -70.6955 -32.6187 81.8119 10.3754 -6.13342 59.7841 0.58676 0.000331005 0.0646653 -27.4448 -0.406218 92.3575 -6.04101 59.1865 -7.72673 0.608647 -8.70715 -0.80952 7.40781 -16.2976 12.901 -29.3814 2.62015 93.0251 8.07041 73.4805 -11.8362 -8.55334 -9.24473 1.28719 2.35394 -21.9975 -11.4356 
263.951 96.1713 174.085 50.5722 -47.1151 -29.6425 -70.1915 0 88.8779 113.433 71.4695 -27.0797 -1.68289 23.0223 1.24808 -162.738 16.9537 178.696 -160.298 56.7115 -170.031 0.363258 -13.5099 -31.0534 -74.6867 49.2499 -71.1936 6.35291 3.53519 -60.7625 0.420957 0.000575438 0.35866 -2.21045 7.0211 45.7849 -72.161 -32.6901 83.5516 13.4652 -6.39685 65.0133 0.58676 0.000331005 0.0646653 -24.5308 0.137804 90.5929 -6.565 60.4704 -8.49168 -0.0863641 -7.04799 -0.639231 7.45246 -16.3621 12.769 -38.2166 0.373224 92.4085 13.2567 78.6616 -17.31 -6.61337 -9.9076 1.20523 2.22096 -17.9473 -1.6752 
260.238 94.8166 170.403 53.3552 -48.2219 -28.3696 -70.1915 0 88.8779 109.669 73.7235 -22.9055 -0.533943 24.4229 2.64125 -161.709 19.2203 -176.33 -167.736 59.3948 -162.929 -0.0704192 -14.9449 -34.137 -71.3117 52.3051 -68.5256 7.25518 5.33375 -53.603 0.420957 0.000575438 0.35866 -1.80251 7.76262 37.5194 -72.5497 -38.075 85.5405 17.091 -6.05667 70.9613 0.58676 0.000331005 0.0646653 -24.0373 -0.0741404 90.8846 -6.08525 59.2276 -8.15818 -0.240399 -8.44833 -0.743532 4.84335 -12.126 11.6737 -49.3072 -2.16072 94.7177 15.8403 78.5101 -14.2505 -2.25303 -7.6451 0.882088 2.09864 -15.6494 -7.24757 
256.244 94.349 166.559 55.1839 -49.6948 -27.6598 -70.1915 0 88.8779 108.002 74.5635 -19.7593 -0.982761 25.7537 0.52323 -157.369 18.6958 179.168 -162.063 58.3485 -169.135 0.290343 -13.6901 -32.1504 -67.6327 58.0123 -63.2162 5.99398 4.11721 -55.4499 0.420957 0.000575438 0.35866 -1.96825 8.26413 38.0291 -68.6523 -36.8797 87.8719 18.467 -4.21601 77.4439 0.58676 0.000331005 0.0646653 -23.6912 0.418467 91.219 -5.12435 56.0263 -7.84651 -0.78796 -3.74965 -0.308051 5.77109 -13.4386 9.66784 -59.4564 -4.30932 96.4526 7.5695 71.1962 -8.95104 -2.86028 -7.86378 0.93236 2.08884 -16.9535 -0.171841 
251.058 95.8333 162.103 54.8751 -50.8039 -27.4758 -70.1915 0 88.8779 108.313 76.2394 -17.4904 -0.632188 27.3512 0.456466 -155.148 21.5364 -177.993 -167.597 61.2568 -161.803 0.378768 -13.2542 -32.353 -66.493 61.8265 -59.3908 4.92877 3.06835 -58.0665 0.420957 0.000575438 0.35866 -1.92832 8.96401 35.5667 -66.8949 -36.7286 88.627 21.0841 -3.0405 81.9932 0.58676 0.000331005 0.0646653 -23.9364 2.81503 91.0779 -3.54553 47.5464 -7.87349 -2.22301 0.967782 0.290755 2.93304 -6.91378 2.10167 -64.7086 -2.71154 99.4227 3.8994 61.2679 -5.90506 -6.12908 -6.9059 1.10983 2.66846 -21.2354 0.87404 
244.441 98.3701 156.853 53.7768 -50.483 -27.6209 -70.1915 0 88.8779 114.416 76.5198 -22.0443 -1.94817 28.2054 -0.263861 -154.521 21.21 -178.672 -163.536 60.771 -167.442 0.670703 -12.0342 -30.8012 -68.3802 64.4447 -55.6592 3.24993 1.89818 -59.9023 0.420957 0.000575438 0.35866 -1.94073 8.5548 36.8337 -66.3571 -34.8731 88.7075 22.5304 -2.83546 83.0185 0.58676 0.000331005 0.0646653 -26.2564 3.58329 87.7664 -1.91254 31.3622 -8.35355 -7.69537 12.8855 2.75544 2.39204 -5.06116 -0.456176 -64.3065 0.622962 101.994 3.50045 54.3141 0.150938 -6.25672 -3.46913 1.03834 3.09968 -26.0863 -2.64561 
237.291 100.108 151.537 54.1837 -47.9765 -27.0343 -70.1915 0 88.8779 114.622 75.8146 -23.2291 -2.65165 27.5731 -0.424473 -153.206 21.8488 -179.672 -163.291 61.3599 -167.767 0.806841 -11.4431 -29.3795 -79.261 65.0177 -45.2821 4.51422 2.38652 -62.086 0.420957 0.000575438 0.35866 -1.86317 7.61641 38.7953 -65.1786 -32.9971 88.0281 21.7263 -3.18558 81.887 0.58676 0.000331005 0.0646653 -26.0275 4.52397 92.5667 -0.92996 25.2864 -23.7214 -10.6321 12.7427 3.44587 3.36697 -8.45372 5.06677 -61.4284 2.52403 100.947 3.09353 49.2137 3.23086 -2.90063 -2.32944 0.643568 2.72415 -22.46 -2.12752 
